<?xml version="1.0" encoding="utf-8"?><!-- Uploaded to: SVG Repo, www.svgrepo.com, Generator: SVG Repo Mixer Tools -->
<svg fill="#000000" width="800px" height="800px" viewBox="-20.33 0 85 85" xmlns="http://www.w3.org/2000/svg">
  <path id="facebook" d="M250.831,1078.506c-2.038.917-4.9,1.008-7.945.918-2.132.619-4.207,1.291-6.419,1.834-.868,3.207.147,6.909,0,10.389,2.809.909,6.246-1.638,8.864-.916,1.948.291,2.03,2.452,2.445,4.278-.1,1.122.26,2.7-.305,3.36a4.9,4.9,0,0,1-.613,3.055c-.409,2.034-.468,4.425-1.527,5.807-1.96.993-5.008.9-7.638,1.221.774,6.863.3,14.975.913,22v8.861c-.208,1.229.294,1.744.3,2.75.2,1.119-.659,1.173-.609,2.14-.956.569-2.308,1.332-3.667.61-1.774,2.2-5.563,2.383-8.253,3.668-2.39-.052-5.152.265-6.721-.61v-2.751c-.045-.963,1.7-.129,1.223-1.527.378-1.6-1.749-.7-1.528-2.141.027-.433.051-.866-.31-.915a8.275,8.275,0,0,1,1.228-5.5c-.811-2.145-.616-5.3-.613-8.251.257-1.274-.6-1.442-.615-2.445.758-5.413-.4-11.352,0-17.417-2.419-.282-5.222.514-6.719-.307-.093-.051-.111-.215-.3-.3a10.436,10.436,0,0,1-2.445-1.529,47.293,47.293,0,0,1-1.224-4.888c.084-1.854-.329-4.2.611-5.195a54.053,54.053,0,0,0,10.081-1.529c-.288-1.337-.315-2.94-.606-4.277.237-6.011-1.1-12.247.606-17.115.3-.007.241-.372.31-.61,3.74-3.9,7.823-7.458,15.584-7.334,2.03-.62,5.13-.17,7.642-.306,2.147.5,4.261,1.033,6.414,1.529.788.539,1.32,1.329,2.14,1.834.09.623.827.6.917,1.22.424.19.046,1.179.613,1.224A25.707,25.707,0,0,1,250.831,1078.506Zm-24.753,49.506c-.3.008-.236.373-.305.61-.3.008-.239.373-.3.612-.448.187.03.369,0,0,.3-.01.235-.374.3-.612.3-.009.236-.373.305-.61.9-.321.9-1.546,2.445-1.224,1.2,1.524-.33,3.926-.916,5.5-.474,2.074-1.566,3.526-2.138,5.5.446.572,1.673.362,1.528,1.528a8.863,8.863,0,0,1-.919,3.363c1.843-.092,3.019-.851,4.585-1.224,1.224-.37,2.235.811,2.444-.306-.693-.325-.117-1.919-.3-2.748v-9.168c.126-.737-.558-.666-.3-1.529v-10.7c-.126-.736.556-.663.3-1.525V1110.9c.445-.571.012-2.026.61-2.446.418-.925-.144-1.09,0-2.443.735-.588,1.017-1.634,1.835-2.138,1.458.309,3.842-.473,5.8-.611a23.543,23.543,0,0,0,1.531-7.64,29.487,29.487,0,0,1-9.169.916c-.01-.3-.375-.236-.61-.305a11.711,11.711,0,0,1-1.225-2.14c.089-4.263-.539-7.813-.305-12.224a19.122,19.122,0,0,0,.918-3.054c.707-.207.818-1.018,1.526-1.222,2.978-1,5.629-2.32,8.865-3.057h4.582c-.237-1.969.764-2.7.612-4.587-4.262-1.985-12.872-1.357-18.031-.608-1.91,1.149-3.725,2.384-5.5,3.665-.184,1.137-1.248,1.4-.914,3.058.4.854.631-.963,1.525-.612.035-.78,1.026-.607,1.833-.611-.143,3.115-1.806,4.714-2.136,7.641-.555.564-.835,1.4-1.528,1.833-.186,2.972.383,6.7-.3,9.167.722,1.212,1.8,2.062,1.525,4.279-.3.007-.234.373-.3.61-2.13,1.229-6.378.343-9.473.612-.351.65-.017,2.726.306,3.667,3.47.593,7.815-1.535,9.472.917.364.906-.2,2.073,0,3.666.191,1.132-.5,3.146.611,3.362a4.454,4.454,0,0,1,1.528-2.141,1.961,1.961,0,0,1,2.141-1.526c1.674.894.6,3.625,0,4.89-.413.709-.506,1.735-.916,2.444.172.81-1.257,1.556-.307,2.138a2.846,2.846,0,0,1,2.753-2.138c.7,1,.156,2.864-.308,3.666a15.04,15.04,0,0,1-1.222,3.057,17.788,17.788,0,0,1-2.445,6.112Z" transform="translate(-208.334 -1063.5)" fill-rule="evenodd"/>
</svg>